# xmcd
#
# Track frame offsets: 
#        150
#        18596
#        35599
#        54754
#        65386
#        80637
#        99825
#        112684
#        125265
#        139075
#        151976
#        167695
#
# Disc length: 2430 seconds
#
# Revision: 0
# Processed by: cddbd v1.5.2PL0 Copyright (c) Steve Scherf et al.
# Submitted via: ExactAudioCopyFreeDBPlugin 1.0
#
DISCID=8b097c0c
DTITLE=jaSz - métro
DYEAR=2014
DGENRE=Pop
TTITLE0=Encore un effort
TTITLE1=Love song
TTITLE2=Rushing
TTITLE3=Drink my money
TTITLE4=Dans mon ballon
TTITLE5=A reculons
TTITLE6=My cherie amour
TTITLE7=Couleur café
TTITLE8=Padam padam
TTITLE9=(You make me feel like) A natural woman
TTITLE10=Love song (trio version)
TTITLE11=Où est-il?
EXTD=
EXTT0=
EXTT1=
EXTT2=
EXTT3=
EXTT4=
EXTT5=
EXTT6=
EXTT7=
EXTT8=
EXTT9=
EXTT10=
EXTT11=
PLAYORDER=
